<svg xmlns="http://www.w3.org/2000/svg" viewBox="0 0 200 200">
  <g fill="none" stroke="#565b63" stroke-width="2.5" stroke-linejoin="round" opacity="0.9">
    <path d="M100 18 C138 18 164 46 164 82 C164 104 156 116 148 128 C142 137 138 142 138 154 L138 168 C138 174 133 178 127 178 L73 178 C67 178 62 174 62 168 L62 154 C62 142 58 137 52 128 C44 116 36 104 36 82 C36 46 62 18 100 18 Z"/>
    <path d="M62 154 L138 154" stroke-width="2"/>
    <path d="M70 154 L70 174 M82 154 L82 178 M94 154 L94 178 M106 154 L106 178 M118 154 L118 178 M130 154 L130 174" stroke-width="2"/>
    <path d="M40 86 Q52 72 60 86" stroke-width="1.6" opacity="0.7"/>
    <path d="M160 86 Q148 72 140 86" stroke-width="1.6" opacity="0.7"/>
  </g>

  <g>
    <circle cx="72" cy="82" r="17" fill="#0f1115"/>
    <circle cx="128" cy="82" r="17" fill="#0f1115"/>
  </g>

  <g>
    <path d="M100 60 C96 78 90 96 82 112 L94 112 L88 138 L112 108 L100 108 Z" fill="#00ade3"/>
    <path d="M72 78 C46 62 24 64 12 78 C28 86 48 88 68 82 Z" fill="#dd1e8e"/>
    <path d="M128 78 C154 62 176 64 188 78 C172 86 152 88 132 82 Z" fill="#dd1e8e"/>
    <path d="M72 78 C50 68 34 70 24 80 C36 84 52 84 68 80 Z" fill="#00ade3" opacity="0.55"/>
    <path d="M128 78 C150 68 166 70 176 80 C164 84 148 84 132 80 Z" fill="#00ade3" opacity="0.55"/>
    <circle cx="100" cy="64" r="4.5" fill="#dd1e8e"/>
  </g>
</svg>
